<svg xmlns="http://www.w3.org/2000/svg" viewBox="0 0 24 24">
  <path fill="#f9a825" d="M13 9h5.5L13 3.5zM6 2h8l6 6v12a2 2 0 0 1-2 2H6a2 2 0 0 1-2-2V4a2 2 0 0 1 2-2"/>
  <path fill="#f9a825" d="M10.5 10c-.83 0-1.5.67-1.5 1.5v1c0 .55-.45 1-1 1v1c.55 0 1 .45 1 1v1c0 .83.67 1.5 1.5 1.5H11v-1h-.5a.5.5 0 0 1-.5-.5v-1c0-.73-.41-1.37-1.02-1.69.61-.32 1.02-.96 1.02-1.69v-1a.5.5 0 0 1 .5-.5H11v-1z"/>
  <path fill="#f9a825" d="M13 10v1h.5a.5.5 0 0 1 .5.5v1c0 .73.41 1.37 1.02 1.69-.61.32-1.02.96-1.02 1.69v1a.5.5 0 0 1-.5.5H13v1h.5c.83 0 1.5-.67 1.5-1.5v-1c0-.55.45-1 1-1v-1c-.55 0-1-.45-1-1v-1c0-.83-.67-1.5-1.5-1.5z"/>
</svg>
